<?xml version="1.0" encoding="utf-8"?>
<!-- Generator: Adobe Illustrator 21.1.0, SVG Export Plug-In . SVG Version: 6.00 Build 0)  -->
<svg version="1.0" id="Layer_1" xmlns="http://www.w3.org/2000/svg" xmlns:xlink="http://www.w3.org/1999/xlink" x="0px" y="0px"
	 viewBox="0 0 580 150" style="enable-background:new 0 0 580 150;" xml:space="preserve">
<style type="text/css">
	.st0{fill:#F6EB0C;}
	.st1{fill:none;stroke:#FFFFFF;stroke-width:7;stroke-linecap:round;stroke-miterlimit:10;}
	.st2{fill:none;stroke:#000000;stroke-width:7;stroke-linecap:round;stroke-miterlimit:10;}
	.st3{fill:#FFFFFF;}
	.st4{fill-rule:evenodd;clip-rule:evenodd;fill:#FFFFFF;}
	.st5{fill:none;}
</style>
<g id="XMLID_107_">
	<g id="XMLID_235_">
		<path id="XMLID_239_" class="st1" d="M147.7,109.7H73.4c0,0-5.6-0.2-9.2-3.8c-3.5-3.5-5.2-9.3-5.2-9.3L41.6,28.1
			c0,0-1.9-9-11.2-11.9C20.6,13.2,9,9.7,9,9.7"/>
		<circle id="XMLID_237_" class="st3" cx="85.9" cy="130.8" r="9.5"/>
		<circle id="XMLID_236_" class="st3" cx="129.5" cy="130.8" r="9.5"/>
	</g>
	<g id="XMLID_153_">
		<g id="XMLID_171_">
			<g id="XMLID_74_">
				<path id="XMLID_75_" class="st4" d="M509.6,97.1l-0.7,2.7c17.1,0.1,16.6-1.8,16.6-1.8c21.1-0.5,34.5-1,34.5-1H509.6z
					 M509.9,91.8c17.1,0.1,16.6-1.8,16.6-1.8c21.1-0.5,34.5-1,34.5-1h-50.3L509.9,91.8z M511.9,83.8c17.1,0.1,16.6-1.8,16.6-1.8
					c21.1-0.5,34.5-1,34.5-1h-50.3L511.9,83.8z M512.9,74.8c17.1,0.1,16.6-1.8,16.6-1.8c21.1-0.5,34.5-1,34.5-1h-50.3L512.9,74.8z
					 M514.9,65.8c17.1,0.1,16.6-1.8,16.6-1.8c21.1-0.5,34.5-1,34.5-1h-50.3L514.9,65.8z M515.9,56.8c17.1,0.1,16.6-1.8,16.6-1.8
					c21.1-0.5,34.5-1,34.5-1h-50.3L515.9,56.8z M517.9,47.8c17.1,0.1,16.6-1.8,16.6-1.8c21.1-0.5,34.5-1,34.5-1h-50.3L517.9,47.8z
					 M519.9,38.8c17.1,0.1,16.6-1.8,16.6-1.8c21.1-0.5,34.5-1,34.5-1h-50.3L519.9,38.8z M537.5,28.1c21.1-0.5,34.5-1,34.5-1h-50.3
					l-0.7,2.7C537.9,30,537.5,28.1,537.5,28.1z"/>
			</g>
		</g>
		<path id="XMLID_154_" class="st3" d="M479.1,26.1l-12.9,75h44l12.9-75H479.1z M491.6,45.5L488.7,59h19.9l-1.6,8h-19.9L484,81.7
			h24.6l-1.6,8h-34.2l10.8-52.3h32.8l-1.7,8H491.6z"/>
	</g>
	<path id="XMLID_151_" class="st3" d="M115.2,67.4c4,5.8,8,11.7,11.9,17.8h0.3c-0.4-6.3-0.6-12.8-0.6-19.4V31h8v65.3h-8l-25.6-36.4
		c-4.4-6.3-8.4-12.3-11.9-17.8H89c0.4,6,0.6,12.9,0.6,20.8v33.3h-8V31h7.9L115.2,67.4z"/>
	<path id="XMLID_147_" class="st3" d="M172.4,91c2.5,0,4.8-0.2,6.9-0.6c2.1-0.4,4.1-1,6.2-1.7v6.3c-1.7,0.8-3.7,1.5-6.2,1.9
		c-2.4,0.5-5.1,0.7-7.9,0.7c-3.3,0-6.4-0.4-9.4-1.3c-2.9-0.8-5.4-2.2-7.6-4.1c-2.1-1.9-3.8-4.4-5-7.4c-1.2-3-1.8-6.7-1.8-11
		c0-4.2,0.6-7.9,1.8-11c1.2-3.1,2.7-5.7,4.7-7.8c1.9-2.1,4.2-3.6,6.7-4.7c2.5-1,5.2-1.6,7.9-1.6c2.6,0,5,0.4,7.3,1.3
		s4.2,2.2,5.9,4.1c1.7,1.9,3,4.2,3.9,7.2c1,2.9,1.4,6.4,1.4,10.5c0,0.4,0,0.7,0,1s0,0.9,0,1.9h-32c0,3,0.4,5.5,1.3,7.5
		c0.9,2.1,2.1,3.7,3.7,5c1.5,1.3,3.4,2.2,5.4,2.8C167.7,90.7,170,91,172.4,91z M168.4,55.2c-1.7,0-3.4,0.3-4.9,1s-2.8,1.6-3.9,2.8
		c-1.1,1.2-2,2.5-2.7,4.1c-0.7,1.6-1.1,3.3-1.3,5.1h23.7c0-1.8-0.2-3.5-0.7-5.1s-1.2-3-2.1-4.1c-0.9-1.2-2.1-2.1-3.4-2.8
		C171.7,55.6,170.2,55.2,168.4,55.2z"/>
	<path id="XMLID_144_" class="st3" d="M200.4,39.2v-8.4h7.6v8.4H200.4z M200.6,96.3V49.9h7.6v46.4H200.6z"/>
	<path id="XMLID_141_" class="st3" d="M241.3,48.7c2,0,3.8,0.3,5.3,0.8c1.5,0.5,2.8,1.1,3.9,1.8s1.9,1.5,2.6,2.2
		c0.6,0.7,1.1,1.3,1.3,1.7h0.2l1.6-5.3h5.7v49.1c0,3.6-0.6,6.7-1.8,9.4c-1.2,2.7-2.8,4.9-4.9,6.6c-2.1,1.8-4.7,3.1-7.6,3.9
		c-3,0.9-6.3,1.3-9.9,1.3c-3.1,0-5.8-0.3-8.2-0.8c-2.4-0.5-4.3-1.2-5.7-1.9v-6.4c1.1,0.5,2.2,0.8,3.2,1.1c1,0.3,2.1,0.6,3.2,0.8
		c1.1,0.2,2.2,0.4,3.4,0.5c1.2,0.1,2.4,0.1,3.8,0.1c5.4,0,9.6-1.3,12.5-3.8c2.9-2.5,4.3-6.4,4.3-11.6V92H254
		c-1.7,1.8-3.6,3.2-5.8,4.1s-4.7,1.4-7.5,1.4c-1.3,0-2.7-0.1-4.2-0.4c-1.5-0.3-3-0.8-4.5-1.5c-1.5-0.7-2.9-1.6-4.3-2.8
		c-1.4-1.2-2.6-2.6-3.6-4.3c-1-1.7-1.9-3.8-2.5-6.2c-0.6-2.4-1-5.1-1-8.3c0-4.3,0.6-8.1,1.8-11.3s2.7-5.8,4.6-7.9
		c1.9-2.1,4.1-3.6,6.6-4.7C236.1,49.2,238.6,48.7,241.3,48.7z M228.5,73.4c0,3.6,0.4,6.6,1.3,8.9c0.9,2.3,2,4.1,3.3,5.4
		c1.4,1.3,2.8,2.2,4.4,2.6c1.6,0.5,3.1,0.7,4.5,0.7c2.3,0,4.5-0.5,6.6-1.4c2.1-0.9,3.9-2.2,5.4-3.9V61.6c-0.4-0.6-1-1.3-1.8-2
		c-0.7-0.7-1.6-1.4-2.6-2.1c-1-0.6-2.1-1.2-3.4-1.6s-2.7-0.7-4.2-0.7c-2.2,0-4.2,0.4-5.9,1.3s-3.1,2.1-4.3,3.7
		c-1.2,1.6-2,3.5-2.6,5.7S228.5,70.7,228.5,73.4z"/>
	<path id="XMLID_139_" class="st3" d="M284.4,56.3h0.1c0.8-1.1,1.8-2.1,2.8-3c1-0.9,2.2-1.7,3.5-2.4s2.6-1.2,4.1-1.6s3-0.6,4.7-0.6
		c1.8,0,3.5,0.2,5.3,0.7s3.4,1.3,4.9,2.5c1.5,1.2,2.7,2.9,3.7,5c0.9,2.1,1.4,4.9,1.4,8.3v31.1h-7.6V66.5c0-3.7-0.7-6.6-2.1-8.4
		c-1.4-1.9-3.7-2.8-7-2.8c-2.7,0-5.2,0.7-7.6,2.2c-2.4,1.4-4.5,3.4-6.3,6v33h-7.6V25.6h7.6V56.3z"/>
	<path id="XMLID_136_" class="st3" d="M371.2,72.4c0,4.3-0.6,8.1-1.8,11.2c-1.2,3.2-2.7,5.8-4.6,7.8c-1.9,2.1-4.1,3.6-6.6,4.6
		c-2.5,1-5,1.5-7.7,1.5c-2,0-3.7-0.3-5.2-0.8s-2.8-1.1-3.9-1.8c-1.1-0.7-1.9-1.4-2.5-2.1c-0.6-0.7-1.1-1.3-1.3-1.7h-0.1l-1.6,5.2
		h-5.7V25.6h7.6v28.7h0.1c1.7-1.8,3.6-3.1,5.8-4.1c2.2-1,4.7-1.5,7.6-1.5c1.3,0,2.7,0.1,4.2,0.4s3,0.8,4.5,1.5
		c1.5,0.7,2.9,1.7,4.3,2.8s2.6,2.6,3.6,4.4c1,1.7,1.9,3.8,2.5,6.2C370.9,66.5,371.2,69.2,371.2,72.4z M363.3,72.9
		c0-3.7-0.4-6.7-1.3-9c-0.9-2.3-2-4.1-3.3-5.4c-1.4-1.3-2.8-2.2-4.3-2.7c-1.5-0.5-3.1-0.7-4.6-0.7c-2.3,0-4.5,0.5-6.6,1.5
		c-2.1,1-3.9,2.2-5.5,3.8v24.3c0.5,0.6,1,1.3,1.8,2s1.6,1.4,2.6,2.1c1,0.6,2.1,1.2,3.4,1.6c1.3,0.4,2.6,0.7,4.1,0.7
		c2.2,0,4.2-0.4,5.9-1.3s3.1-2.1,4.3-3.7c1.2-1.6,2-3.5,2.6-5.8C363,78.1,363.3,75.6,363.3,72.9z"/>
	<g id="XMLID_110_">
		<path id="XMLID_133_" class="st5" d="M410.3,49.8c0.6,0,1.1-0.5,1.1-1.1c0-0.6-0.5-1.1-1.1-1.1c-0.6,0-1.1,0.5-1.1,1.1
			C409.3,49.3,409.7,49.8,410.3,49.8z M410.3,47.8c0.5,0,1,0.4,1,1c0,0.5-0.4,1-1,1s-1-0.4-1-1C409.4,48.2,409.8,47.8,410.3,47.8z"
			/>
		<path id="XMLID_132_" class="st5" d="M409.4,39.3c0-4.2-3.2-7.6-7.2-7.6c-4,0-7.2,3.4-7.2,7.6v2.3h14.4V39.3z"/>
		<path id="XMLID_129_" class="st5" d="M394,49.8c0.6,0,1.1-0.5,1.1-1.1c0-0.6-0.5-1.1-1.1-1.1c-0.6,0-1.1,0.5-1.1,1.1
			C393,49.3,393.4,49.8,394,49.8z M394.1,47.8c0.5,0,1,0.4,1,1c0,0.5-0.4,1-1,1c-0.5,0-1-0.4-1-1C393.1,48.2,393.5,47.8,394.1,47.8z
			"/>
		<path id="XMLID_123_" class="st3" d="M424.5,42.5c-0.1-0.5-0.5-0.8-1-0.8h-12.2v-2.3c0-5.2-4.1-9.5-9.1-9.5c-5,0-9.1,4.3-9.1,9.5
			v2.3h-11.9c-0.5,0-0.9,0.4-1,0.8l-6.9,53.7c0,0.3,0.1,0.6,0.2,0.8c0.2,0.2,0.5,0.3,0.7,0.3h56.2c0.3,0,0.5-0.1,0.7-0.3
			c0.2-0.2,0.3-0.5,0.2-0.8L424.5,42.5z M410.3,47.7c0.6,0,1.1,0.5,1.1,1.1c0,0.6-0.5,1.1-1.1,1.1c-0.6,0-1.1-0.5-1.1-1.1
			C409.3,48.2,409.7,47.7,410.3,47.7z M395,39.3c0-4.2,3.2-7.6,7.2-7.6c4,0,7.2,3.4,7.2,7.6v2.3H395V39.3z M394,47.7
			c0.6,0,1.1,0.5,1.1,1.1c0,0.6-0.5,1.1-1.1,1.1c-0.6,0-1.1-0.5-1.1-1.1C393,48.2,393.4,47.7,394,47.7z M420.2,81.4
			c-0.9,2.6-2.2,4.8-3.8,6.7c-1.6,1.8-3.6,3.3-6,4.3c-2.3,1-5,1.5-7.9,1.5c-3,0-5.7-0.5-8-1.5c-2.4-1-4.4-2.4-6-4.3
			c-1.6-1.8-2.9-4.1-3.8-6.7c-0.9-2.6-1.3-5.5-1.3-8.6c0-3.2,0.5-6.1,1.4-8.7c0.9-2.6,2.2-4.8,3.8-6.7c1.6-1.9,3.6-3.3,6-4.3
			c2.4-1,5-1.5,7.9-1.5c3,0,5.6,0.5,8,1.5c2.4,1,4.4,2.4,6,4.3c1.6,1.9,2.9,4.1,3.8,6.7c0.9,2.6,1.3,5.5,1.3,8.7
			C421.5,75.9,421.1,78.8,420.2,81.4z"/>
		<path id="XMLID_122_" class="st3" d="M409.8,63.1c-0.9-1.1-2-2-3.2-2.5c-1.2-0.6-2.6-0.9-4.1-0.9c-1.5,0-2.9,0.3-4.1,0.9
			c-1.2,0.6-2.3,1.4-3.2,2.5c-0.9,1.1-1.6,2.5-2.1,4.1c-0.5,1.6-0.8,3.5-0.8,5.5c0,2,0.3,3.9,0.8,5.5c0.5,1.6,1.2,3,2.1,4.1
			c0.9,1.1,2,1.9,3.3,2.5c1.2,0.6,2.6,0.9,4.1,0.9c1.5,0,2.8-0.3,4.1-0.9c1.2-0.6,2.3-1.4,3.2-2.5c0.9-1.1,1.6-2.5,2.1-4.1
			c0.5-1.6,0.8-3.4,0.8-5.5c0-2.1-0.3-3.9-0.8-5.5C411.4,65.6,410.7,64.2,409.8,63.1z"/>
	</g>
	<path id="XMLID_108_" class="st3" d="M461.9,56.1h-0.6c-1.8,0-3.5,0.2-5.3,0.5c-1.7,0.3-3.3,0.8-4.9,1.5s-2.9,1.5-4.1,2.5
		s-2.2,2.1-3.1,3.5v32.3h-7.6V49.9h5.9l1.5,7.4h0.1c0.7-1.2,1.7-2.3,2.8-3.4c1.1-1,2.3-2,3.7-2.7s2.9-1.4,4.5-1.8
		c1.6-0.4,3.3-0.7,5.1-0.7c0.3,0,0.7,0,1,0s0.6,0,0.9,0.1V56.1z"/>
</g>
</svg>
